HIERARCHY
ROOT Hips
{
	OFFSET -0.001795 -0.223333 0.028219
	CHANNELS 6 Xposition Yposition Zposition Zrotation Yrotation Xrotation 
	JOINT LeftUpLeg
	{
		OFFSET 0.069520 -0.091406 -0.006815
		CHANNELS 3 Zrotation Yrotation Xrotation
		JOINT LeftLeg
		{
			OFFSET 0.034277 -0.375199 -0.004496
			CHANNELS 3 Zrotation Yrotation Xrotation
			JOINT LeftFoot
			{
				OFFSET -0.013596 -0.397961 -0.043693
				CHANNELS 3 Zrotation Yrotation Xrotation
				JOINT LeftToe
				{
					OFFSET 0.026358 -0.055791 0.119288
					CHANNELS 3 Zrotation Yrotation Xrotation
					End Site
					{
						OFFSET 0.000000 0.000000 0.000000
					}
				}
			}
		}
	}
	JOINT RightUpLeg
	{
		OFFSET -0.067670 -0.090522 -0.004320
		CHANNELS 3 Zrotation Yrotation Xrotation
		JOINT RightLeg
		{
			OFFSET -0.038290 -0.382569 -0.008850
			CHANNELS 3 Zrotation Yrotation Xrotation
			JOINT RightFoot
			{
				OFFSET 0.015774 -0.398415 -0.042312
				CHANNELS 3 Zrotation Yrotation Xrotation
				JOINT RightToe
				{
					OFFSET -0.025372 -0.048144 0.123348
					CHANNELS 3 Zrotation Yrotation Xrotation
					End Site
					{
						OFFSET 0.000000 0.000000 0.000000
					}
				}
			}
		}
	}
	JOINT Spine
	{
		OFFSET -0.002533 0.108963 -0.026696
		CHANNELS 3 Zrotation Yrotation Xrotation
		JOINT Spine1
		{
			OFFSET 0.005487 0.135180 0.001092
			CHANNELS 3 Zrotation Yrotation Xrotation
			JOINT Spine2
			{
				OFFSET 0.001457 0.052922 0.025425
				CHANNELS 3 Zrotation Yrotation Xrotation
				JOINT Neck
				{
					OFFSET -0.002778 0.213870 -0.042857
					CHANNELS 3 Zrotation Yrotation Xrotation
					JOINT Head
					{
						OFFSET 0.005152 0.064970 0.051349
						CHANNELS 3 Zrotation Yrotation Xrotation
						End Site
						{
							OFFSET 0.000000 0.000000 0.000000
						}
					}
				}
				JOINT LeftShoulder
				{
					OFFSET 0.078845 0.121749 -0.034090
					CHANNELS 3 Zrotation Yrotation Xrotation
					JOINT LeftArm
					{
						OFFSET 0.090977 0.030469 -0.008868
						CHANNELS 3 Zrotation Yrotation Xrotation
						JOINT LeftForeArm
						{
							OFFSET 0.259612 -0.012772 -0.027456
							CHANNELS 3 Zrotation Yrotation Xrotation
							JOINT LeftHand
							{
								OFFSET 0.249234 0.008986 -0.001171
								CHANNELS 3 Zrotation Yrotation Xrotation
								End Site
								{
									OFFSET 0.000000 0.000000 0.000000
								}
							}
						}
					}
				}
				JOINT RightShoulder
				{
					OFFSET -0.081759 0.118833 -0.038615
					CHANNELS 3 Zrotation Yrotation Xrotation
					JOINT RightArm
					{
						OFFSET -0.096012 0.032551 -0.009143
						CHANNELS 3 Zrotation Yrotation Xrotation
						JOINT RightForeArm
						{
							OFFSET -0.253742 -0.013329 -0.021401
							CHANNELS 3 Zrotation Yrotation Xrotation
							JOINT RightHand
							{
								OFFSET -0.255298 0.007772 -0.005559
								CHANNELS 3 Zrotation Yrotation Xrotation
								End Site
								{
									OFFSET 0.000000 0.000000 0.000000
								}
							}
						}
					}
				}
			}
		}
	}
}
MOTION
Frames: 8
Frame Time: 0.050000
0.084778 0.835823 -0.044143 -1.861621 -8.467216 -8.096196 21.431343 1.377594 -5.439908 -1.703425 0.368316 33.248927 -1.532277 -14.059529 -16.075845 0.000000 0.000000 0.000000 -18.726529 -0.103735 -13.277250 0.176235 2.447302 33.719061 3.212184 14.797708 -6.284797 0.000000 0.000000 0.000000 7.192582 -1.387208 16.871419 -8.064488 2.479774 -25.986960 -1.579446 9.589290 22.943634 12.469786 -4.020887 -30.067639 0.000000 0.000000 0.000000 -31.927665 -13.029646 4.363427 -28.325777 -7.248587 -2.462280 -12.435640 -28.312373 4.002226 0.000000 0.000000 0.000000 34.774957 -0.579142 -0.752765 40.366303 8.140274 -3.799414 13.399612 27.914769 4.482098 0.000000 0.000000 0.000000 
0.084384 0.835976 -0.044183 -1.841722 -8.505083 -8.038495 21.307387 1.328820 -5.067301 -1.559075 0.296152 32.555041 -1.357856 -13.888409 -16.512717 0.000000 0.000000 0.000000 -18.782954 -0.099299 -13.202177 0.266224 2.387187 33.467819 3.172220 14.841654 -6.423926 0.000000 0.000000 0.000000 7.197322 -1.402682 17.063838 -8.118952 2.489934 -26.070922 -1.639879 9.431973 22.818122 12.294820 -3.878906 -30.435692 0.000000 0.000000 0.000000 -32.084057 -12.644027 4.166923 -28.319282 -7.259807 -2.471277 -12.500868 -27.840617 3.954263 0.000000 0.000000 0.000000 34.519842 -0.509389 -0.773999 40.732728 8.179518 -3.771759 13.411957 27.947955 4.489157 0.000000 0.000000 0.000000 
0.083710 0.836030 -0.044662 -1.906958 -8.390522 -7.784260 21.250384 1.296315 -5.022440 -1.338017 0.179328 31.920006 -1.202002 -13.791490 -16.935422 0.000000 0.000000 0.000000 -18.716688 -0.100996 -13.346933 0.364156 2.316791 33.340922 3.076278 14.680603 -6.557810 0.000000 0.000000 0.000000 7.112367 -1.411169 17.179990 -7.930530 2.436344 -26.238251 -1.715850 9.444402 22.909369 12.318044 -3.849991 -30.613652 0.000000 0.000000 0.000000 -32.110320 -12.490461 4.032661 -28.411765 -7.131632 -2.502974 -12.341341 -27.026062 3.795390 0.000000 0.000000 0.000000 34.616917 -0.565214 -0.778739 40.679398 8.536980 -3.680574 13.486181 28.009322 4.524277 0.000000 0.000000 0.000000 
0.082718 0.836317 -0.045400 -2.051864 -8.390421 -7.462241 21.491579 1.331522 -5.292727 -1.394811 0.201201 31.738620 -1.233965 -13.748884 -16.789254 0.000000 0.000000 0.000000 -18.634900 -0.094589 -13.554311 0.637601 2.175994 33.113741 3.027667 14.598565 -6.620828 0.000000 0.000000 0.000000 7.041564 -1.423049 17.330566 -7.952232 2.432939 -26.307038 -1.647719 9.363662 22.768976 12.207621 -3.753866 -30.817111 0.000000 0.000000 0.000000 -31.843549 -12.123638 3.811986 -28.453069 -7.248253 -2.486757 -12.378686 -26.529373 3.730564 0.000000 0.000000 0.000000 34.334109 -0.516659 -0.777667 40.922853 8.699293 -3.609003 13.637985 27.846937 4.526209 0.000000 0.000000 0.000000 
0.081534 0.836396 -0.046206 -2.177805 -8.373807 -7.129998 21.705288 1.362221 -5.556106 -1.417028 0.207596 31.514945 -1.235753 -13.698680 -16.739517 0.000000 0.000000 0.000000 -18.584053 -0.086072 -13.692018 0.931440 2.015662 32.762898 2.911643 14.517330 -6.867263 0.000000 0.000000 0.000000 6.898772 -1.428407 17.518817 -7.815966 2.390145 -26.493515 -1.630507 9.483362 22.769809 12.436084 -3.832785 -30.946803 0.000000 0.000000 0.000000 -31.573975 -12.079357 3.735969 -28.355626 -7.047581 -2.510349 -12.806993 -26.475256 3.816641 0.000000 0.000000 0.000000 34.409084 -0.618527 -0.802692 40.912734 8.782835 -3.597411 13.876913 28.291585 4.677163 0.000000 0.000000 0.000000 
0.080455 0.836728 -0.046777 -2.341311 -8.215569 -6.896207 21.931328 1.368206 -5.648069 -1.390843 0.170634 31.092885 -1.245853 -13.769496 -16.738783 0.000000 0.000000 0.000000 -18.509058 -0.078356 -13.529081 1.216800 1.829500 32.206598 2.776971 14.358933 -7.118874 0.000000 0.000000 0.000000 6.748803 -1.426154 17.597064 -7.649240 2.350497 -26.442431 -1.530202 9.560830 22.608529 12.591482 -3.866902 -31.025797 0.000000 0.000000 0.000000 -31.173183 -12.025299 3.626413 -28.456506 -6.702385 -2.564585 -13.122881 -26.544960 3.894398 0.000000 0.000000 0.000000 34.412246 -0.604355 -0.723546 40.770120 8.802722 -3.590209 14.089705 28.504013 4.773447 0.000000 0.000000 0.000000 
0.079626 0.836631 -0.046880 -2.276509 -8.179581 -6.842317 22.053668 1.357800 -5.491954 -1.622719 0.256164 30.689710 -1.231827 -13.817189 -16.823973 0.000000 0.000000 0.000000 -18.619717 -0.079173 -13.380575 1.346631 1.746491 31.890003 2.654611 14.361548 -7.458043 0.000000 0.000000 0.000000 6.602343 -1.426271 17.830424 -7.715804 2.356822 -26.744380 -1.401601 9.682546 22.738111 12.606085 -3.832986 -31.175876 0.000000 0.000000 0.000000 -31.001043 -11.878316 3.483211 -28.305678 -6.698932 -2.550387 -13.679509 -26.859154 4.068244 0.000000 0.000000 0.000000 34.444099 -0.772976 -0.783600 40.498234 8.635418 -3.657137 14.467748 29.022959 4.977915 0.000000 0.000000 0.000000 
0.079007 0.836872 -0.046516 -2.193579 -8.294166 -6.887464 22.071206 1.327399 -5.069255 -1.769088 0.317952 30.163420 -1.191732 -13.719707 -16.891342 0.000000 0.000000 0.000000 -18.665174 -0.065587 -13.178617 1.320213 1.743243 31.584345 2.613219 14.490674 -7.661556 0.000000 0.000000 0.000000 6.514656 -1.413599 17.892632 -7.613559 2.333181 -26.698908 -1.373127 9.900463 22.636034 12.590894 -3.857001 -30.872779 0.000000 0.000000 0.000000 -31.083204 -11.702235 3.294450 -28.283702 -6.261098 -2.614721 -14.138166 -27.141749 4.218667 0.000000 0.000000 0.000000 34.509643 -0.781167 -0.726705 40.358098 8.345093 -3.757574 14.301410 29.493351 5.035811 0.000000 0.000000 0.000000 
